<svg id="Layer_1" data-name="Layer 1" xmlns="http://www.w3.org/2000/svg" viewBox="0 0 512 512"><title>left-hand-high-five-outline</title><path d="M303.11,450.66v45Q261.84,512,224.82,512a176.13,176.13,0,0,1-74.06-16.35V461l-28-31.47Q97.91,384.89,88.11,314.39l3.56-37.76L29.61,172.45q-14-23.54-14-37.66a28.84,28.84,0,0,1,8.61-21.18,28.55,28.55,0,0,1,21-8.63q18.2,0,36.41,28.92l56.25,89.57L103,95.23q-6.52-23.89-6.51-33,0-17.6,8-26.25t23.87-8.65q27.29,0,39.31,40.24l39,131.69V49q0-24.52,9.1-36.77T243,0q36.05,0,36,55.32l-3.57,150.24,40.6-116.93Q334,37.09,359.94,37.09q14.94,0,22.41,7.22t7.48,22q0,15.06-5.2,35.46L344.36,253q3.24,10.71,5.52,33,10.4-5.66,28.91-12,13.32-21.55,29.56-32.32A63.28,63.28,0,0,1,444.08,231q18.83,0,45.8,22.07l6.5,5-70.16,64.51L366.44,400Q331,432.09,303.11,450.66Zm-15.92-7.55q44-33,71-58.85l54.71-70.81L473,259q-15.6-12.58-29.56-12.59a47.43,47.43,0,0,0-28.91,9.92q-13.32,9.91-24.36,30.05a200.55,200.55,0,0,0-96.23,62.94l-12.36-9.44q19.52-28.31,53.37-45.94A264.63,264.63,0,0,0,326.49,253l40.93-147.81q6.48-22.58,6.5-32.95,0-9.42-3.58-14t-10.72-4.55q-13.64,0-25,32.37l-47.1,135.15H259.58l3.89-154.56.33-10.07q0-41.24-20.46-41.24-10.08,0-15.27,7.08t-5.2,21.57l.33,19.83V221.27l-25.58,4.4L157.13,81.41q-10.69-38.66-27.85-38.66-8.43,0-12.63,4.87t-4.21,14.91q0,6.6,5.81,26.68L161.47,242.1,137.88,253,67.54,142.33Q54.23,121,44.52,121q-6.48,0-9.73,3.45t-3.24,10.66q0,9.1,12,29.18l64.89,107.61-4,42.48q10,64.83,33.4,108.89l29.78,34.61v27.38A170,170,0,0,0,227.9,496q26.23,0,59.28-10.7Z" fill="#737277"/></svg>